<svg width="264.6" height="89.33807961778498" viewBox="0 0 349.99999999999994 118.17206298648806" class="looka-1j8o68f">
    <defs id="SvgjsDefs2666">
        <linearGradient id="SvgjsLinearGradient2671">
            <stop id="SvgjsStop2672" stop-color="#b98947" offset="0"></stop>
            <stop id="SvgjsStop2673" stop-color="#faf0a1" offset="1"></stop>
        </linearGradient>
    </defs>
    <g id="SvgjsG2667" featurekey="S6ay6y-0"
        transform="matrix(1.6071819067001343,0,0,1.6071819067001343,94.64010514514936,-65.92177831496248)"
        fill="#ffffff">
        <g xmlns="http://www.w3.org/2000/svg">
            <path
                d="M35.318,41.017H6.446l6.451,4.253l23.108-2.02c0.143-0.013,0.269,0.089,0.288,0.23c0.02,0.142-0.076,0.272-0.216,0.298   l-20.146,3.71l4.98,3.646l18.053-4.135C37.456,45.225,36.24,43.232,35.318,41.017z">
            </path>
            <path
                d="M29.096,57.131l0.118,0.085c1.708,1.178,3.626,1.765,5.772,1.766c3.687,0.002,8.068-1.763,13.115-5.323   c-1.408-0.632-2.72-1.334-3.93-2.124L29.096,57.131z">
            </path>
            <path d="M40.172,48.318L23.1,52.74l4.011,2.944l15.573-5.187C41.782,49.816,40.944,49.092,40.172,48.318z">
            </path>
            <path
                d="M63.996,43.25l23.108,2.02l6.451-4.253H64.682c-0.923,2.215-2.139,4.208-3.645,5.982l18.053,4.135l4.981-3.646   l-20.147-3.71c-0.14-0.026-0.236-0.157-0.216-0.298C63.727,43.338,63.853,43.237,63.996,43.25z">
            </path>
            <path
                d="M51.899,53.66c5.047,3.561,9.428,5.326,13.115,5.323c2.146-0.001,4.064-0.589,5.772-1.766l0.118-0.085l-15.075-5.595   C54.619,52.326,53.306,53.028,51.899,53.66z">
            </path>
            <path d="M57.316,50.496l15.573,5.187L76.9,52.74l-17.072-4.422C59.056,49.092,58.218,49.816,57.316,50.496z">
            </path>
        </g>
    </g>
    <g id="SvgjsG2668" featurekey="j5pGhi-0"
        transform="matrix(4.841879844665527,0,0,4.841879844665527,-6.917108867783953,21.333984138967633)"
        fill="url(#SvgjsLinearGradient2671)">
        <path
            d="M5.1429 20 l-1.5714 0 l-2.1429 -2.1429 l0 -12.143 l3.7143 0 l0 14.286 z M5.7143 5.714 l7.8571 0 l0 3.1429 l-7.8571 0 l0 -3.1429 z M12.429 11.2857 l0 3.1429 l-6.7143 0 l0 -3.1429 l6.7143 0 z M5.7143 20 l0 -3.1429 l7.8571 0 l0 3.1429 l-7.8571 0 z M16 20 l0 -2.8571 l1.1429 0 l0 -8.5714 l-1.1429 0 l0 -2.8571 l6 0 l0 2.8571 l-1.1429 0 l0 8.5714 l1.1429 0 l0 2.8571 l-6 0 z M28.1429 20 l-1.5714 0 l-2.1429 -2.1429 l0 -12.143 l3.7143 0 l0 14.286 z M28.7143 16.8571 l7.1429 0 l0 3.1429 l-7.1429 0 l0 -3.1429 z M37.57142857142857 20 l0 -2.8571 l1.1429 0 l0 -8.5714 l-1.1429 0 l0 -2.8571 l6 0 l0 2.8571 l-1.1429 0 l0 8.5714 l1.1429 0 l0 2.8571 l-6 0 z M51.51432857142857 9.571 l-2.2286 2.9429 l-3.7143 -5.0857 l0 -1.7143 l3.3143 0 z M58.42842857142857 5.714 l0 1.7143 l-3.9429 5.4286 l3.9429 5.4286 l0 1.7143 l-3.2857 0 l-3.1143 -4.5714 l-3.1429 4.5714 l-3.3143 0 l0 -1.7143 l9.5714 -12.571 l3.2857 0 z M64.57147142857143 20 l-3.7143 0 l0 -14.286 l3.7143 0 l0 14.286 z M73.71457142857142 7.856999999999999 l0 5 l-2.1429 2.1429 l2.1429 3.2857 l0 1.7143 l-3.4286 0 l-2.9714 -4.8571 l-2.1714 0 l0 -3.1429 l4.8571 0 l0 -3.1429 l-4.8571 0 l0 -3.1429 l6.4286 0 z">
        </path>
    </g>
</svg>